<?xml version="1.0" encoding="UTF-8"?>
<svg version="1.1" xmlns="http://www.w3.org/2000/svg" width="1408" height="736">
<path d="M0 0 C464.64 0 929.28 0 1408 0 C1408 242.88 1408 485.76 1408 736 C943.36 736 478.72 736 0 736 C0 493.12 0 250.24 0 0 Z " fill="#F9F9F9" transform="translate(0,0)"/>
<path d="M0 0 C1.47339844 -0.00151062 1.47339844 -0.00151062 2.9765625 -0.00305176 C17.81131013 0.0072367 32.18949603 0.54780016 46.8125 3.25 C47.68648437 3.4051709 48.56046875 3.5603418 49.4609375 3.72021484 C55.27581411 4.7657416 61.04730635 5.96028424 66.8125 7.25 C67.48087891 7.39518066 68.14925781 7.54036133 68.83789062 7.68994141 C115.66085047 17.9724911 161.50306443 41.40713773 194.8125 76.25 C197.3004875 78.75858342 199.804776 81.24259635 202.35546875 83.6875 C209.26564857 90.38333156 215.17581484 97.4607042 220.8125 105.25 C221.93785156 106.79300781 221.93785156 106.79300781 223.0859375 108.3671875 C234.76876748 124.80513424 244.37888955 142.50544741 251.8125 161.25 C252.21082031 162.21808594 252.60914063 163.18617188 253.01953125 164.18359375 C261.30943984 184.84257231 266.05467822 206.1329822 268.57568359 228.19042969 C268.73401494 229.56742275 268.90368769 230.94315739 269.08447266 232.31738281 C270.13307071 241.09537658 270.05345039 249.922422 270.0625 258.75 C270.06417175 259.60950256 270.06584351 260.46900513 270.06756592 261.35455322 C270.06964352 279.23482198 268.9344362 296.79449627 264.8125 314.25 C264.1525 314.25 263.4925 314.25 262.8125 314.25 C262.80863281 315.16265625 262.80863281 315.16265625 262.8046875 316.09375 C262.40251932 325.20956204 259.23332624 332.91238986 255.8125 341.25 C255.1525 341.25 254.4925 341.25 253.8125 341.25 C253.63074219 341.81847656 253.44898438 342.38695312 253.26171875 342.97265625 C251.67165366 347.85701003 249.90790222 352.56029027 247.8125 357.25 C247.1525 357.25 246.4925 357.25 245.8125 357.25 C245.74417969 357.94480469 245.67585937 358.63960938 245.60546875 359.35546875 C244.58232726 363.09018721 242.5255079 365.61464502 240.125 368.5625 C239.20642882 369.71696884 238.28845761 370.87191532 237.37109375 372.02734375 C236.92749512 372.58147949 236.48389648 373.13561523 236.02685547 373.70654297 C234.51183414 375.63214909 233.10102579 377.62413663 231.6875 379.625 C229.10708622 383.09220387 226.1213979 385.77147449 222.8125 388.53515625 C220.88449223 390.18827229 219.13492864 391.92081491 217.375 393.75 C213.53643419 397.65047817 209.36264827 401.20112265 204.8125 404.25 C204.1525 404.25 203.4925 404.25 202.8125 404.25 C202.8125 404.91 202.8125 405.57 202.8125 406.25 C200.6875 407.80078125 200.6875 407.80078125 197.8125 409.5625 C196.29849609 410.49642578 196.29849609 410.49642578 194.75390625 411.44921875 C193.78324219 412.04347656 192.81257813 412.63773438 191.8125 413.25 C190.45797272 414.12444166 189.10375714 414.99936653 187.75 415.875 C184.19818992 418.08326824 180.53617536 419.96668889 176.77734375 421.796875 C174.50585604 422.91017333 172.25276629 424.04564801 170.00390625 425.203125 C163.3529074 428.6121597 156.80306334 431.8511752 149.7109375 434.2578125 C146.78271248 435.26019681 143.89989977 436.34960836 141.01049805 437.45751953 C130.65563758 441.4160494 120.35099598 445.09115517 109.34765625 446.7578125 C106.74418539 447.20260728 106.74418539 447.20260728 104.06396484 448.19311523 C98.29725777 450.06757649 92.3223032 451.04617981 86.375 452.1875 C85.68942017 452.32006195 85.00384033 452.4526239 84.29748535 452.58920288 C71.86245201 454.98287985 59.40655175 456.89691347 46.8125 458.25 C46.03812088 458.33692108 45.26374176 458.42384216 44.46589661 458.51339722 C36.37733853 459.34381901 28.30615795 459.44978156 20.18359375 459.48828125 C19.44177416 459.49235678 18.69995457 459.4964323 17.93565559 459.50063133 C13.98664776 459.52139336 10.03767335 459.53572094 6.08862305 459.54516602 C2.90385043 459.55389932 -0.28046764 459.57447975 -3.46508789 459.60668945 C-73.0742868 460.29427209 -161.9054373 447.3855735 -214.40649414 397.12573242 C-215.77395863 395.75268328 -217.1323594 394.37050047 -218.47827148 392.97631836 C-220.56781987 390.86587748 -222.85202213 389.08050968 -225.1875 387.25 C-229.08341822 383.57745651 -232.30101964 379.68646067 -235.4375 375.375 C-235.91276123 374.72370117 -236.38802246 374.07240234 -236.87768555 373.40136719 C-241.37276205 367.1477393 -245.38180616 360.65408404 -249.20166016 353.97070312 C-250.13471538 352.34213125 -251.08825865 350.72534747 -252.04296875 349.109375 C-254.93207831 344.0860301 -256.92843429 340.07897858 -257.1875 334.25 C-257.8475 334.25 -258.5075 334.25 -259.1875 334.25 C-259.35765625 333.55777344 -259.5278125 332.86554688 -259.703125 332.15234375 C-260.81354034 327.66933713 -261.9226159 323.19286125 -263.171875 318.74609375 C-265.08427802 311.92764145 -266.68531811 305.16567177 -267.875 298.1875 C-267.99423828 297.50478027 -268.11347656 296.82206055 -268.23632812 296.11865234 C-270.43075069 282.53669878 -270.46254159 268.72313401 -270.5 255 C-270.50261841 254.07679962 -270.50523682 253.15359924 -270.50793457 252.2024231 C-270.51257666 236.86479201 -269.41076378 222.28717699 -266.1875 207.25 C-266.02733398 206.46028809 -265.86716797 205.67057617 -265.70214844 204.85693359 C-263.97175515 196.38682377 -261.63190247 188.10134431 -259.1875 179.8125 C-258.95047363 179.0076416 -258.71344727 178.2027832 -258.46923828 177.37353516 C-256.6940687 171.52499613 -254.54404615 165.8875234 -252.1875 160.25 C-251.8678125 159.48292725 -251.548125 158.71585449 -251.21875 157.92553711 C-243.27831685 139.16506311 -233.58795415 121.44006662 -221.1875 105.25 C-220.50042969 104.35152344 -219.81335938 103.45304687 -219.10546875 102.52734375 C-215.05341705 97.35638231 -210.74993749 92.44768971 -206.31640625 87.6015625 C-204.50925403 85.60540537 -202.78392854 83.56923635 -201.0625 81.5 C-190.55718343 69.52490291 -178.0590065 59.5424791 -165.1875 50.25 C-164.58534668 49.81236328 -163.98319336 49.37472656 -163.36279297 48.92382812 C-124.86064994 21.24805164 -78.78452476 7.05530848 -32.1875 1.25 C-31.36113037 1.14397461 -30.53476074 1.03794922 -29.68334961 0.92871094 C-19.8375144 -0.15459302 -9.89250438 0.00702241 0 0 Z " fill="#292828" transform="translate(699.1875,146.75)"/>
<path d="M0 0 C0.72198578 0.00215515 1.44397156 0.0043103 2.18783569 0.00653076 C31.1171352 0.14418135 59.35457294 5.7671876 86.87011719 14.56689453 C89.33396738 15.33880656 91.80770583 16.06382263 94.2890625 16.77734375 C103.4940554 19.43556437 112.44035174 22.34152658 121.25244141 26.12866211 C126.82673074 28.44332064 131.34209797 29.19198131 137.28515625 27.39453125 C138.78369141 26.76611328 138.78369141 26.76611328 140.3125 26.125 C141.44429687 25.66738281 142.57609375 25.20976562 143.7421875 24.73828125 C144.89976562 24.26777344 146.05734375 23.79726563 147.25 23.3125 C156.20138289 19.88991243 165.22333944 17.10484377 174.46875 14.625 C177.63683502 13.77085943 180.77465106 12.85427927 183.90625 11.875 C194.96178743 8.46384509 206.06480748 6.05374127 217.4375 4 C218.50401291 3.80641403 218.50401291 3.80641403 219.59207153 3.60891724 C243.784748 -0.74718427 272.52650479 -3.7568809 296.25 4.3125 C297.28543945 4.64991211 297.28543945 4.64991211 298.34179688 4.99414062 C311.51687218 9.35380547 322.68010031 15.27471932 333.25 24.3125 C334.00023437 24.91707031 334.75046875 25.52164062 335.5234375 26.14453125 C349.7201933 37.97516108 360.16045225 55.62760681 365.25 73.3125 C365.54648437 74.281875 365.84296875 75.25125 366.1484375 76.25 C372.29593991 99.71202753 368.02986364 124.72038336 356.3828125 145.76171875 C345.90524761 163.65484549 331.9029418 176.58161973 311.69921875 181.99609375 C296.13815707 185.26143954 278.54263968 184.43114987 263.25 180.3125 C262.4038916 180.08626953 261.5577832 179.86003906 260.68603516 179.62695312 C236.63125672 173.01262538 213.31884431 163.64059181 190.125 154.51953125 C162.05846199 143.55590172 132.99888666 138.25648266 103.25 145.3125 C101.75691397 145.64245644 100.26340846 145.9705193 98.76953125 146.296875 C97.26260727 146.63357103 95.75608508 146.97207111 94.25 147.3125 C93.56768311 147.4662207 92.88536621 147.61994141 92.18237305 147.77832031 C87.38111487 148.91355845 82.8459734 150.52583508 78.25 152.3125 C76.30326656 153.03704129 74.35523222 153.75809227 72.40625 154.4765625 C71.33616699 154.87222412 70.26608398 155.26788574 69.16357422 155.67553711 C68.03709473 156.09198486 66.91061523 156.50843262 65.75 156.9375 C55.55465634 160.70752952 45.37042504 164.5057044 35.20507812 168.35595703 C25.56362029 171.99101054 15.85502215 175.07836701 5.9375 177.875 C4.88626953 178.17857422 3.83503906 178.48214844 2.75195312 178.79492188 C-8.31282381 181.91645391 -18.99097795 183.70640444 -30.5 183.6875 C-31.53769531 183.68588867 -32.57539062 183.68427734 -33.64453125 183.68261719 C-54.3603931 183.35532197 -69.17357772 175.64869455 -83.51953125 160.921875 C-94.68105545 147.86426 -100.29039493 132.6586678 -104.75 116.3125 C-104.93248291 115.68335693 -105.11496582 115.05421387 -105.30297852 114.40600586 C-110.22116734 91.37298065 -102.72544772 66.11603485 -90.84765625 46.45703125 C-87.48784023 41.42043553 -83.79988119 36.80849547 -79.75 32.3125 C-79.05261719 31.53261719 -78.35523438 30.75273437 -77.63671875 29.94921875 C-57.31960243 8.44353256 -28.85027257 -0.15566619 0 0 Z " fill="#3BB377" transform="translate(567.75,294.6875)"/>
<path d="M0 0 C2.74910582 1.30541803 5.19017685 2.75331508 7.65234375 4.5390625 C8.33925293 5.032854 9.02616211 5.52664551 9.73388672 6.03540039 C10.4610791 6.55996826 11.18827148 7.08453613 11.9375 7.625 C18.53223111 12.32344908 25.18698845 16.80568101 32.16845703 20.91796875 C33.49847291 21.70370994 34.824458 22.49628661 36.14794922 23.29296875 C46.80155713 29.70534055 57.43892113 35.4109566 69 40 C69.68755371 40.27714844 70.37510742 40.55429687 71.08349609 40.83984375 C93.63655785 49.87564232 115.53429281 50.08542596 139 44 C140.02367676 43.73735352 141.04735352 43.47470703 142.10205078 43.20410156 C145.40729038 42.34417781 148.70488512 41.46041208 152 40.5625 C153.52161743 40.14859009 153.52161743 40.14859009 155.07397461 39.72631836 C161.11266542 38.01401579 166.82071065 35.91055124 172.58496094 33.43432617 C179.04405273 30.72148915 185.61160735 28.28294899 192.1640625 25.80615234 C194.62913139 24.87343679 197.0919378 23.93491311 199.5546875 22.99609375 C206.68804695 20.28873684 213.77807703 17.62155695 221.12768555 15.54907227 C223.12893968 14.99851546 223.12893968 14.99851546 225.48046875 13.97265625 C229.64051438 12.36668515 233.97741331 11.45698654 238.3125 10.4375 C239.68051758 10.10588867 239.68051758 10.10588867 241.07617188 9.76757812 C272.31294169 2.35584278 302.74732516 9.46915188 332.0625 20.6875 C333.97469553 21.40967569 335.8872971 22.13077712 337.80029297 22.85083008 C343.20498604 24.88804611 348.60362685 26.94085941 354 29 C354.69845032 29.26651367 355.39690063 29.53302734 356.11651611 29.80761719 C356.75240662 30.0502832 357.38829712 30.29294922 358.04345703 30.54296875 C370.24725584 35.19853625 382.36118904 39.66786624 395 43 C395.71720215 43.18933105 396.4344043 43.37866211 397.17333984 43.57373047 C422.7205753 50.25219374 446.70460091 50.0694385 471 39 C471.87108398 38.60748047 472.74216797 38.21496094 473.63964844 37.81054688 C486.35953502 32.03630189 498.39839358 25.77367851 510 18 C511.80075152 16.80073661 513.60153482 15.60152093 515.40234375 14.40234375 C518.18396977 12.54880278 520.96307457 10.69216534 523.73291016 8.82104492 C528.39633346 5.6792341 533.07423287 2.71351622 538 0 C537.38401477 10.81216171 536.18074221 21.38835263 534 32 C533.34 32 532.68 32 532 32 C531.99613281 32.91265625 531.99613281 32.91265625 531.9921875 33.84375 C531.59001932 42.95956204 528.42082624 50.66238986 525 59 C524.34 59 523.68 59 523 59 C522.81824219 59.56847656 522.63648438 60.13695312 522.44921875 60.72265625 C520.85915366 65.60701003 519.09540222 70.31029027 517 75 C516.34 75 515.68 75 515 75 C514.93167969 75.69480469 514.86335937 76.38960938 514.79296875 77.10546875 C513.76982726 80.84018721 511.7130079 83.36464502 509.3125 86.3125 C508.39392882 87.46696884 507.47595761 88.62191532 506.55859375 89.77734375 C506.11499512 90.33147949 505.67139648 90.88561523 505.21435547 91.45654297 C503.69933414 93.38214909 502.28852579 95.37413663 500.875 97.375 C498.29458622 100.84220387 495.3088979 103.52147449 492 106.28515625 C490.07199223 107.93827229 488.32242864 109.67081491 486.5625 111.5 C482.72393419 115.40047817 478.55014827 118.95112265 474 122 C473.34 122 472.68 122 472 122 C472 122.66 472 123.32 472 124 C469.875 125.55078125 469.875 125.55078125 467 127.3125 C465.48599609 128.24642578 465.48599609 128.24642578 463.94140625 129.19921875 C462.97074219 129.79347656 462.00007813 130.38773438 461 131 C459.64547272 131.87444166 458.29125714 132.74936653 456.9375 133.625 C453.38568992 135.83326824 449.72367536 137.71668889 445.96484375 139.546875 C443.69335604 140.66017333 441.44026629 141.79564801 439.19140625 142.953125 C432.5404074 146.3621597 425.99056334 149.6011752 418.8984375 152.0078125 C415.97021248 153.01019681 413.08739977 154.09960836 410.19799805 155.20751953 C399.84313758 159.1660494 389.53849598 162.84115517 378.53515625 164.5078125 C375.93168539 164.95260728 375.93168539 164.95260728 373.25146484 165.94311523 C367.48475777 167.81757649 361.5098032 168.79617981 355.5625 169.9375 C354.87692017 170.07006195 354.19134033 170.2026239 353.48498535 170.33920288 C341.04995201 172.73287985 328.59405175 174.64691347 316 176 C315.22562088 176.08692108 314.45124176 176.17384216 313.65339661 176.26339722 C305.56483853 177.09381901 297.49365795 177.19978156 289.37109375 177.23828125 C288.62927416 177.24235678 287.88745457 177.2464323 287.12315559 177.25063133 C283.17414776 177.27139336 279.22517335 177.28572094 275.27612305 177.29516602 C272.09135043 177.30389932 268.90703236 177.32447975 265.72241211 177.35668945 C196.1132132 178.04427209 107.2820627 165.1355735 54.78100586 114.87573242 C53.41354137 113.50268328 52.0551406 112.12050047 50.70922852 110.72631836 C48.61968013 108.61587748 46.33547787 106.83050968 44 105 C40.10408178 101.32745651 36.88648036 97.43646067 33.75 93.125 C33.27473877 92.47370117 32.79947754 91.82240234 32.30981445 91.15136719 C27.81473795 84.8977393 23.80569384 78.40408404 19.98583984 71.72070312 C19.05278462 70.09213125 18.09924135 68.47534747 17.14453125 66.859375 C14.25542169 61.8360301 12.25906571 57.82897858 12 52 C11.34 52 10.68 52 10 52 C9.82984375 51.30777344 9.6596875 50.61554688 9.484375 49.90234375 C8.37395966 45.41933713 7.2648841 40.94286125 6.015625 36.49609375 C4.06215585 29.53122488 2.45753626 22.62944649 1.25 15.5 C1.12238281 14.75862793 0.99476563 14.01725586 0.86328125 13.25341797 C0.14273815 8.77734755 -0.11928811 4.53294821 0 0 Z " fill="#4A4A4A" transform="translate(430,429)"/>
<path d="M0 0 C13.94202569 10.32452954 23.2366346 25.8866165 26 43 C26.28327982 46.44314666 26.334028 49.85883858 26.3125 53.3125 C26.30831055 54.23458252 26.30412109 55.15666504 26.29980469 56.10668945 C26.18426478 63.09501042 25.33797987 69.38078425 23 76 C22.73316406 76.84304688 22.46632813 77.68609375 22.19140625 78.5546875 C16.97007623 93.4528825 4.75518871 105.70392768 -9 113 C-26.46509775 121.02968518 -43.78497347 122.24463629 -62 116 C-72.5970521 111.89071109 -80.19342258 106.00950069 -88 98 C-88.61617187 97.39285156 -89.23234375 96.78570312 -89.8671875 96.16015625 C-100.32253584 85.08182083 -104.75147777 68.89200117 -104.5 54.0625 C-104.48864014 52.92167969 -104.47728027 51.78085937 -104.46557617 50.60546875 C-104.27631419 42.41153838 -103.4435709 35.51733779 -100 28 C-99.62617187 27.11828125 -99.25234375 26.2365625 -98.8671875 25.328125 C-91.53618341 9.30672534 -78.3137662 -2.02583198 -62.4609375 -9.17578125 C-40.95671875 -16.37798785 -18.53211928 -12.45856758 0 0 Z " fill="#FAFBFA" transform="translate(890,334)"/>
<path d="M0 0 C1.64824013 1.15502629 3.27561928 2.34071338 4.875 3.5625 C5.58785156 4.09488281 6.30070313 4.62726563 7.03515625 5.17578125 C19.37624586 15.13901159 27.75364256 30.90575568 29.875 46.5625 C31.04679639 66.04121369 27.55006574 84.02186371 14.7734375 99.4765625 C3.31724742 112.06422814 -11.97876273 121.05509332 -29.18359375 122.0078125 C-40.30103103 122.33388841 -50.88512614 122.32042119 -61.125 117.5625 C-62.06988281 117.12679687 -63.01476562 116.69109375 -63.98828125 116.2421875 C-81.62828194 107.31239462 -92.48441275 93.07009241 -99 74.625 C-104.39822505 57.9861671 -101.30038004 39.694933 -93.58959961 24.45336914 C-85.04609589 8.70348966 -70.02808805 -2.98065798 -52.93359375 -8.07421875 C-34.80669215 -12.79910971 -15.90656139 -9.63109607 0 0 Z " fill="#FAFBFA" transform="translate(582.125,331.4375)"/>
<path d="M0 0 C7.30741363 3.215262 10.33728338 10.00742738 13.265625 17.0390625 C16.04047362 25.53947905 16.3803703 33.73768508 16.4375 42.625 C16.44765137 43.74447021 16.45780273 44.86394043 16.46826172 46.01733398 C16.33808347 58.53736423 14.27231582 72.26349381 5.34765625 81.7578125 C2.42643452 84.2576355 0.0749016 85.87785209 -3.75 86.3125 C-7.98414962 85.90537023 -9.7613732 84.75627812 -13 82 C-16.77757361 77.17665742 -19.17464353 71.8137076 -21 66 C-21.33700928 64.94893066 -21.67401855 63.89786133 -22.02124023 62.81494141 C-23.48885055 57.0945925 -23.37195346 51.43354253 -23.37060547 45.5690918 C-23.37494034 43.46643635 -23.41121533 41.36595187 -23.44921875 39.26367188 C-23.56966542 24.87648073 -20.65937791 12.26406564 -10.625 1.4375 C-7.04027677 -0.52556272 -3.94042727 -0.73057232 0 0 Z " fill="#2D2C2C" transform="translate(563,347)"/>
<path d="M0 0 C6.07356483 1.88929593 9.94122948 6.91603889 12.859375 12.32421875 C17.05358845 21.92174536 18.58681358 31.40006909 18.484375 41.82421875 C18.47752686 42.90703125 18.47067871 43.98984375 18.46362305 45.10546875 C18.18723224 59.06786297 16.14609319 74.02961988 5.671875 84.19921875 C2.99456624 86.29450387 1.94414767 86.6526592 -1.578125 87.19921875 C-7.16776058 86.26761282 -9.716035 84.25741012 -13.015625 79.76171875 C-16.59594883 74.14208676 -18.28214221 68.0378682 -19.953125 61.63671875 C-20.129646 61.05196777 -20.30616699 60.4672168 -20.48803711 59.86474609 C-21.49347231 55.04815732 -21.17925477 50.02376253 -21.19335938 45.12182617 C-21.2029788 43.10487232 -21.23398644 41.08897693 -21.265625 39.07226562 C-21.31435782 26.78550396 -19.3650497 14.49093459 -11.35546875 4.6796875 C-7.94063809 1.35820073 -4.84676297 -0.42268282 0 0 Z " fill="#2D2C2C" transform="translate(839.953125,346.36328125)"/>
<path d="M0 0 C4.48948189 0.16236824 6.89887562 1.24728391 10.25 4.375 C15.82241889 11.90291154 15.83887144 19.29329386 15.25 28.375 C11.01601872 26.90909119 7.77598144 24.79254372 4.1875 22.125 C3.16527344 21.37734375 2.14304687 20.6296875 1.08984375 19.859375 C-2.50408194 16.71530796 -5.32013699 13.69188877 -6.2109375 8.890625 C-6.18257812 8.14296875 -6.15421875 7.3953125 -6.125 6.625 C-6.11210938 5.86703125 -6.09921875 5.1090625 -6.0859375 4.328125 C-5.41585489 0.43229587 -3.72465059 0.37246506 0 0 Z " fill="#2C2B2B" transform="translate(646.75,476.625)"/>
<path d="M0 0 C2.4375 1.0625 2.4375 1.0625 4 3 C4.60238275 6.99078573 4.33927842 9.30669192 2.5625 12.9375 C-2.40541964 18.87476981 -8.30648063 24.08184232 -15 28 C-15.66 28 -16.32 28 -17 28 C-17.98681606 11.35570238 -17.98681606 11.35570238 -12 4 C-8.2183479 -0.08020358 -5.50279312 -0.70035549 0 0 Z " fill="#2C2B2C" transform="translate(753,477)"/>
<path d="M0 0 C0.66 0.33 1.32 0.66 2 1 C0.25 7.75 0.25 7.75 -2 10 C-1.54177532 6.53058454 -1.10868317 3.32604951 0 0 Z " fill="#505050" transform="translate(543,363)"/>
</svg>
